<mxfile host="app.diagrams.net" agent="Mozilla/5.0 (Windows NT 10.0; Win64; x64) AppleWebKit/537.36 (KHTML, like Gecko) Chrome/131.0.0.0 Safari/537.36" version="25.0.3">
  <diagram id="R2lEEEUBdFMjLlhIrx00" name="Page-1">
    <mxGraphModel dx="2524" dy="780" grid="1" gridSize="10" guides="1" tooltips="1" connect="1" arrows="1" fold="1" page="1" pageScale="1" pageWidth="850" pageHeight="1100" math="0" shadow="0" extFonts="Permanent Marker^https://fonts.googleapis.com/css?family=Permanent+Marker">
      <root>
        <mxCell id="0" />
        <mxCell id="1" parent="0" />
        <mxCell id="HIa7G53-TBurwskOPkQx-1" value="Quản trị thư viện" style="whiteSpace=wrap;html=1;align=center;" parent="1" vertex="1">
          <mxGeometry x="-490" y="480" width="100" height="50" as="geometry" />
        </mxCell>
        <mxCell id="HIa7G53-TBurwskOPkQx-2" value="Thủ thư" style="rounded=0;whiteSpace=wrap;html=1;" parent="1" vertex="1">
          <mxGeometry x="-30" y="480" width="90" height="42.5" as="geometry" />
        </mxCell>
        <mxCell id="HIa7G53-TBurwskOPkQx-3" value="Sách" style="rounded=0;whiteSpace=wrap;html=1;" parent="1" vertex="1">
          <mxGeometry x="-25" y="730" width="80" height="40" as="geometry" />
        </mxCell>
        <mxCell id="HIa7G53-TBurwskOPkQx-5" value="Độc giả" style="rounded=0;whiteSpace=wrap;html=1;" parent="1" vertex="1">
          <mxGeometry x="450" y="485.01" width="90" height="40" as="geometry" />
        </mxCell>
        <mxCell id="HIa7G53-TBurwskOPkQx-9" value="Điều hành" style="shape=rhombus;perimeter=rhombusPerimeter;whiteSpace=wrap;html=1;align=center;" parent="1" vertex="1">
          <mxGeometry x="-300" y="470" width="120" height="60" as="geometry" />
        </mxCell>
        <mxCell id="HIa7G53-TBurwskOPkQx-27" value="" style="endArrow=none;html=1;rounded=0;entryX=0;entryY=0.5;entryDx=0;entryDy=0;" parent="1" source="HIa7G53-TBurwskOPkQx-1" target="HIa7G53-TBurwskOPkQx-9" edge="1">
          <mxGeometry relative="1" as="geometry">
            <mxPoint x="-254.3" y="420" as="sourcePoint" />
            <mxPoint x="-340" y="500" as="targetPoint" />
          </mxGeometry>
        </mxCell>
        <mxCell id="HIa7G53-TBurwskOPkQx-29" value="(1,n)" style="text;html=1;align=center;verticalAlign=middle;resizable=0;points=[];autosize=1;strokeColor=none;fillColor=none;" parent="1" vertex="1">
          <mxGeometry x="-80" y="500" width="50" height="30" as="geometry" />
        </mxCell>
        <mxCell id="HIa7G53-TBurwskOPkQx-32" value="Giám sát và điều phối" style="shape=rhombus;perimeter=rhombusPerimeter;whiteSpace=wrap;html=1;align=center;direction=west;" parent="1" vertex="1">
          <mxGeometry x="-66.25" y="600" width="162.5" height="61.25" as="geometry" />
        </mxCell>
        <mxCell id="HIa7G53-TBurwskOPkQx-37" value="(0,n)" style="text;html=1;align=center;verticalAlign=middle;resizable=0;points=[];autosize=1;strokeColor=none;fillColor=none;" parent="1" vertex="1">
          <mxGeometry x="-42.5" y="690" width="50" height="30" as="geometry" />
        </mxCell>
        <mxCell id="HIa7G53-TBurwskOPkQx-38" value="(1,1)" style="text;html=1;align=center;verticalAlign=middle;resizable=0;points=[];autosize=1;strokeColor=none;fillColor=none;" parent="1" vertex="1">
          <mxGeometry x="-400" y="500" width="50" height="30" as="geometry" />
        </mxCell>
        <mxCell id="HIa7G53-TBurwskOPkQx-39" value="(1,1)" style="text;html=1;align=center;verticalAlign=middle;resizable=0;points=[];autosize=1;strokeColor=none;fillColor=none;" parent="1" vertex="1">
          <mxGeometry x="-42.5" y="540" width="50" height="30" as="geometry" />
        </mxCell>
        <mxCell id="HIa7G53-TBurwskOPkQx-42" value="" style="endArrow=none;html=1;rounded=0;entryX=1;entryY=0.5;entryDx=0;entryDy=0;exitX=0;exitY=0.5;exitDx=0;exitDy=0;" parent="1" source="HIa7G53-TBurwskOPkQx-2" target="HIa7G53-TBurwskOPkQx-9" edge="1">
          <mxGeometry relative="1" as="geometry">
            <mxPoint x="-310" y="750" as="sourcePoint" />
            <mxPoint x="-150" y="750" as="targetPoint" />
          </mxGeometry>
        </mxCell>
        <mxCell id="HIa7G53-TBurwskOPkQx-43" value="cập nhật thông tin" style="shape=rhombus;perimeter=rhombusPerimeter;whiteSpace=wrap;html=1;align=center;direction=west;" parent="1" vertex="1">
          <mxGeometry x="190" y="474.38" width="115" height="61.25" as="geometry" />
        </mxCell>
        <mxCell id="HIa7G53-TBurwskOPkQx-44" value="" style="endArrow=none;html=1;rounded=0;" parent="1" source="HIa7G53-TBurwskOPkQx-43" target="HIa7G53-TBurwskOPkQx-5" edge="1">
          <mxGeometry relative="1" as="geometry">
            <mxPoint x="170" y="590" as="sourcePoint" />
            <mxPoint x="330" y="590" as="targetPoint" />
          </mxGeometry>
        </mxCell>
        <mxCell id="HIa7G53-TBurwskOPkQx-46" value="" style="endArrow=none;html=1;rounded=0;exitX=1;exitY=0.5;exitDx=0;exitDy=0;entryX=1;entryY=0.5;entryDx=0;entryDy=0;" parent="1" source="HIa7G53-TBurwskOPkQx-2" target="HIa7G53-TBurwskOPkQx-43" edge="1">
          <mxGeometry relative="1" as="geometry">
            <mxPoint x="210" y="522.5" as="sourcePoint" />
            <mxPoint x="210" y="590" as="targetPoint" />
          </mxGeometry>
        </mxCell>
        <mxCell id="HIa7G53-TBurwskOPkQx-47" value="(1,n)" style="text;html=1;align=center;verticalAlign=middle;resizable=0;points=[];autosize=1;strokeColor=none;fillColor=none;" parent="1" vertex="1">
          <mxGeometry x="385" y="510" width="50" height="30" as="geometry" />
        </mxCell>
        <mxCell id="HIa7G53-TBurwskOPkQx-48" value="(1,1)" style="text;html=1;align=center;verticalAlign=middle;resizable=0;points=[];autosize=1;strokeColor=none;fillColor=none;" parent="1" vertex="1">
          <mxGeometry x="60" y="505.63" width="50" height="30" as="geometry" />
        </mxCell>
        <mxCell id="HIa7G53-TBurwskOPkQx-49" value="" style="endArrow=none;html=1;rounded=0;entryX=0.5;entryY=0;entryDx=0;entryDy=0;exitX=0.5;exitY=0;exitDx=0;exitDy=0;" parent="1" source="HIa7G53-TBurwskOPkQx-32" target="HIa7G53-TBurwskOPkQx-3" edge="1">
          <mxGeometry relative="1" as="geometry">
            <mxPoint x="14.5" y="691.25" as="sourcePoint" />
            <mxPoint x="14.5" y="770.25" as="targetPoint" />
          </mxGeometry>
        </mxCell>
        <mxCell id="HIa7G53-TBurwskOPkQx-50" value="" style="endArrow=none;html=1;rounded=0;entryX=0.5;entryY=1;entryDx=0;entryDy=0;exitX=0.5;exitY=1;exitDx=0;exitDy=0;" parent="1" source="HIa7G53-TBurwskOPkQx-2" target="HIa7G53-TBurwskOPkQx-32" edge="1">
          <mxGeometry relative="1" as="geometry">
            <mxPoint x="14.5" y="530" as="sourcePoint" />
            <mxPoint x="14.5" y="609" as="targetPoint" />
          </mxGeometry>
        </mxCell>
        <mxCell id="HIa7G53-TBurwskOPkQx-51" value="quản lý và xử lý&amp;nbsp;" style="shape=rhombus;perimeter=rhombusPerimeter;whiteSpace=wrap;html=1;align=center;direction=west;" parent="1" vertex="1">
          <mxGeometry x="-56.25" y="330" width="142.5" height="61.25" as="geometry" />
        </mxCell>
        <mxCell id="HIa7G53-TBurwskOPkQx-52" value="(0,n)" style="text;html=1;align=center;verticalAlign=middle;resizable=0;points=[];autosize=1;strokeColor=none;fillColor=none;" parent="1" vertex="1">
          <mxGeometry x="7.5" y="250" width="50" height="30" as="geometry" />
        </mxCell>
        <mxCell id="HIa7G53-TBurwskOPkQx-53" value="(1,1)" style="text;html=1;align=center;verticalAlign=middle;resizable=0;points=[];autosize=1;strokeColor=none;fillColor=none;" parent="1" vertex="1">
          <mxGeometry x="5" y="444.38" width="50" height="30" as="geometry" />
        </mxCell>
        <mxCell id="HIa7G53-TBurwskOPkQx-54" value="" style="endArrow=none;html=1;rounded=0;entryX=0.5;entryY=1;entryDx=0;entryDy=0;" parent="1" target="HIa7G53-TBurwskOPkQx-51" edge="1">
          <mxGeometry relative="1" as="geometry">
            <mxPoint x="15" y="250" as="sourcePoint" />
            <mxPoint x="10" y="330" as="targetPoint" />
          </mxGeometry>
        </mxCell>
        <mxCell id="HIa7G53-TBurwskOPkQx-55" value="" style="endArrow=none;html=1;rounded=0;entryX=0.5;entryY=0;entryDx=0;entryDy=0;exitX=0.5;exitY=0;exitDx=0;exitDy=0;" parent="1" source="HIa7G53-TBurwskOPkQx-51" target="HIa7G53-TBurwskOPkQx-2" edge="1">
          <mxGeometry relative="1" as="geometry">
            <mxPoint x="10" y="441.25" as="sourcePoint" />
            <mxPoint x="10" y="548.25" as="targetPoint" />
          </mxGeometry>
        </mxCell>
        <mxCell id="beYNYx_X1feckc-HWX2N-88" style="edgeStyle=orthogonalEdgeStyle;rounded=0;orthogonalLoop=1;jettySize=auto;html=1;" parent="1" source="HIa7G53-TBurwskOPkQx-56" target="beYNYx_X1feckc-HWX2N-21" edge="1">
          <mxGeometry relative="1" as="geometry" />
        </mxCell>
        <mxCell id="HIa7G53-TBurwskOPkQx-56" value="mượn" style="shape=rhombus;perimeter=rhombusPerimeter;whiteSpace=wrap;html=1;align=center;direction=west;" parent="1" vertex="1">
          <mxGeometry x="383" y="250" width="85" height="41.25" as="geometry" />
        </mxCell>
        <mxCell id="HIa7G53-TBurwskOPkQx-60" value="(1,n)" style="text;html=1;align=center;verticalAlign=middle;resizable=0;points=[];autosize=1;strokeColor=none;fillColor=none;" parent="1" vertex="1">
          <mxGeometry x="490" y="535" width="50" height="30" as="geometry" />
        </mxCell>
        <mxCell id="HIa7G53-TBurwskOPkQx-62" value="" style="endArrow=none;html=1;rounded=0;exitX=0.145;exitY=0.285;exitDx=0;exitDy=0;exitPerimeter=0;" parent="1" source="HIa7G53-TBurwskOPkQx-56" edge="1">
          <mxGeometry relative="1" as="geometry">
            <mxPoint x="452.4973588640844" y="273.43628172772367" as="sourcePoint" />
            <mxPoint x="510" y="480" as="targetPoint" />
          </mxGeometry>
        </mxCell>
        <mxCell id="HIa7G53-TBurwskOPkQx-64" value="(1,n)" style="text;html=1;align=center;verticalAlign=middle;resizable=0;points=[];autosize=1;strokeColor=none;fillColor=none;" parent="1" vertex="1">
          <mxGeometry x="72.5" y="234.38" width="50" height="30" as="geometry" />
        </mxCell>
        <mxCell id="HIa7G53-TBurwskOPkQx-65" value="(1,1)" style="text;html=1;align=center;verticalAlign=middle;resizable=0;points=[];autosize=1;strokeColor=none;fillColor=none;" parent="1" vertex="1">
          <mxGeometry x="450" y="450" width="50" height="30" as="geometry" />
        </mxCell>
        <mxCell id="beYNYx_X1feckc-HWX2N-89" style="edgeStyle=orthogonalEdgeStyle;rounded=0;orthogonalLoop=1;jettySize=auto;html=1;" parent="1" source="beYNYx_X1feckc-HWX2N-1" target="beYNYx_X1feckc-HWX2N-21" edge="1">
          <mxGeometry relative="1" as="geometry" />
        </mxCell>
        <mxCell id="beYNYx_X1feckc-HWX2N-1" value="trả" style="shape=rhombus;perimeter=rhombusPerimeter;whiteSpace=wrap;html=1;align=center;direction=west;" parent="1" vertex="1">
          <mxGeometry x="452.5" y="224.38" width="85" height="41.25" as="geometry" />
        </mxCell>
        <mxCell id="beYNYx_X1feckc-HWX2N-10" value="MÃ QT" style="ellipse;whiteSpace=wrap;html=1;align=center;fontStyle=4;" parent="1" vertex="1">
          <mxGeometry x="-560" y="390" width="80" height="30" as="geometry" />
        </mxCell>
        <mxCell id="beYNYx_X1feckc-HWX2N-11" value="Họ Tên" style="ellipse;whiteSpace=wrap;html=1;align=center;" parent="1" vertex="1">
          <mxGeometry x="-460" y="380" width="70" height="20" as="geometry" />
        </mxCell>
        <mxCell id="beYNYx_X1feckc-HWX2N-13" value="SĐT" style="ellipse;whiteSpace=wrap;html=1;align=center;" parent="1" vertex="1">
          <mxGeometry x="-380" y="410" width="60" height="20" as="geometry" />
        </mxCell>
        <mxCell id="beYNYx_X1feckc-HWX2N-16" value="" style="endArrow=none;html=1;rounded=0;exitX=0.68;exitY=1.05;exitDx=0;exitDy=0;entryX=0.5;entryY=0;entryDx=0;entryDy=0;exitPerimeter=0;" parent="1" source="beYNYx_X1feckc-HWX2N-10" target="HIa7G53-TBurwskOPkQx-1" edge="1">
          <mxGeometry relative="1" as="geometry">
            <mxPoint x="-510" y="450" as="sourcePoint" />
            <mxPoint x="-450" y="470" as="targetPoint" />
          </mxGeometry>
        </mxCell>
        <mxCell id="beYNYx_X1feckc-HWX2N-17" value="" style="endArrow=none;html=1;rounded=0;exitX=0.5;exitY=0;exitDx=0;exitDy=0;entryX=0;entryY=1;entryDx=0;entryDy=0;" parent="1" source="HIa7G53-TBurwskOPkQx-1" target="beYNYx_X1feckc-HWX2N-13" edge="1">
          <mxGeometry relative="1" as="geometry">
            <mxPoint x="-500" y="430" as="sourcePoint" />
            <mxPoint x="-430" y="490" as="targetPoint" />
          </mxGeometry>
        </mxCell>
        <mxCell id="beYNYx_X1feckc-HWX2N-18" value="" style="endArrow=none;html=1;rounded=0;exitX=0.5;exitY=1;exitDx=0;exitDy=0;" parent="1" source="beYNYx_X1feckc-HWX2N-11" edge="1">
          <mxGeometry relative="1" as="geometry">
            <mxPoint x="-490" y="440" as="sourcePoint" />
            <mxPoint x="-440" y="480" as="targetPoint" />
          </mxGeometry>
        </mxCell>
        <mxCell id="beYNYx_X1feckc-HWX2N-21" value="Phiếu mượn" style="rounded=0;whiteSpace=wrap;html=1;" parent="1" vertex="1">
          <mxGeometry x="-25" y="210" width="80" height="40" as="geometry" />
        </mxCell>
        <mxCell id="beYNYx_X1feckc-HWX2N-25" value="Tên" style="ellipse;whiteSpace=wrap;html=1;align=center;" parent="1" vertex="1">
          <mxGeometry x="-150" y="394.22" width="50" height="27.19" as="geometry" />
        </mxCell>
        <mxCell id="beYNYx_X1feckc-HWX2N-26" value="Địa Chỉ" style="ellipse;whiteSpace=wrap;html=1;align=center;" parent="1" vertex="1">
          <mxGeometry x="-90" y="380" width="60" height="30" as="geometry" />
        </mxCell>
        <mxCell id="beYNYx_X1feckc-HWX2N-27" value="Mã TT" style="ellipse;whiteSpace=wrap;html=1;align=center;fontStyle=4;" parent="1" vertex="1">
          <mxGeometry x="-190" y="430" width="60" height="24.38" as="geometry" />
        </mxCell>
        <mxCell id="beYNYx_X1feckc-HWX2N-28" value="Ngày bắt đầu làm việc" style="ellipse;whiteSpace=wrap;html=1;align=center;" parent="1" vertex="1">
          <mxGeometry x="120" y="444.38" width="90" height="40" as="geometry" />
        </mxCell>
        <mxCell id="beYNYx_X1feckc-HWX2N-29" value="Bằng Cấp" style="ellipse;whiteSpace=wrap;html=1;align=center;" parent="1" vertex="1">
          <mxGeometry x="36.25" y="392.81" width="60" height="30" as="geometry" />
        </mxCell>
        <mxCell id="beYNYx_X1feckc-HWX2N-30" value="" style="endArrow=none;html=1;rounded=0;exitX=0.758;exitY=0.917;exitDx=0;exitDy=0;exitPerimeter=0;entryX=0;entryY=0;entryDx=0;entryDy=0;" parent="1" source="beYNYx_X1feckc-HWX2N-27" target="HIa7G53-TBurwskOPkQx-2" edge="1">
          <mxGeometry relative="1" as="geometry">
            <mxPoint x="-150" y="520" as="sourcePoint" />
            <mxPoint x="10" y="520" as="targetPoint" />
          </mxGeometry>
        </mxCell>
        <mxCell id="beYNYx_X1feckc-HWX2N-31" value="" style="endArrow=none;html=1;rounded=0;exitX=0.689;exitY=0.92;exitDx=0;exitDy=0;exitPerimeter=0;entryX=0;entryY=0;entryDx=0;entryDy=0;" parent="1" source="beYNYx_X1feckc-HWX2N-25" target="HIa7G53-TBurwskOPkQx-2" edge="1">
          <mxGeometry relative="1" as="geometry">
            <mxPoint x="-150" y="520" as="sourcePoint" />
            <mxPoint x="10" y="520" as="targetPoint" />
          </mxGeometry>
        </mxCell>
        <mxCell id="beYNYx_X1feckc-HWX2N-32" value="" style="endArrow=none;html=1;rounded=0;entryX=0.643;entryY=0.917;entryDx=0;entryDy=0;entryPerimeter=0;exitX=0;exitY=0;exitDx=0;exitDy=0;" parent="1" source="HIa7G53-TBurwskOPkQx-2" target="beYNYx_X1feckc-HWX2N-26" edge="1">
          <mxGeometry relative="1" as="geometry">
            <mxPoint x="-150" y="520" as="sourcePoint" />
            <mxPoint x="10" y="520" as="targetPoint" />
          </mxGeometry>
        </mxCell>
        <mxCell id="beYNYx_X1feckc-HWX2N-33" value="" style="endArrow=none;html=1;rounded=0;entryX=0.321;entryY=0.95;entryDx=0;entryDy=0;entryPerimeter=0;exitX=0.75;exitY=0;exitDx=0;exitDy=0;" parent="1" source="HIa7G53-TBurwskOPkQx-2" target="beYNYx_X1feckc-HWX2N-29" edge="1">
          <mxGeometry relative="1" as="geometry">
            <mxPoint x="-150" y="520" as="sourcePoint" />
            <mxPoint x="10" y="520" as="targetPoint" />
          </mxGeometry>
        </mxCell>
        <mxCell id="beYNYx_X1feckc-HWX2N-34" value="" style="endArrow=none;html=1;rounded=0;entryX=-0.001;entryY=0.722;entryDx=0;entryDy=0;entryPerimeter=0;exitX=0.75;exitY=0;exitDx=0;exitDy=0;" parent="1" source="HIa7G53-TBurwskOPkQx-2" target="beYNYx_X1feckc-HWX2N-28" edge="1">
          <mxGeometry relative="1" as="geometry">
            <mxPoint x="-150" y="520" as="sourcePoint" />
            <mxPoint x="10" y="520" as="targetPoint" />
          </mxGeometry>
        </mxCell>
        <mxCell id="beYNYx_X1feckc-HWX2N-35" value="SĐT" style="ellipse;whiteSpace=wrap;html=1;align=center;" parent="1" vertex="1">
          <mxGeometry x="110" y="410" width="53.75" height="20" as="geometry" />
        </mxCell>
        <mxCell id="beYNYx_X1feckc-HWX2N-36" value="" style="endArrow=none;html=1;rounded=0;exitX=0.75;exitY=0;exitDx=0;exitDy=0;" parent="1" source="HIa7G53-TBurwskOPkQx-2" target="beYNYx_X1feckc-HWX2N-35" edge="1">
          <mxGeometry relative="1" as="geometry">
            <mxPoint x="48" y="490" as="sourcePoint" />
            <mxPoint x="66" y="431" as="targetPoint" />
          </mxGeometry>
        </mxCell>
        <mxCell id="beYNYx_X1feckc-HWX2N-37" value="Mã DocGia" style="ellipse;whiteSpace=wrap;html=1;align=center;fontStyle=4;" parent="1" vertex="1">
          <mxGeometry x="340" y="440" width="70" height="27.19" as="geometry" />
        </mxCell>
        <mxCell id="beYNYx_X1feckc-HWX2N-38" value="Tên" style="ellipse;whiteSpace=wrap;html=1;align=center;" parent="1" vertex="1">
          <mxGeometry x="390" y="410" width="50" height="27.19" as="geometry" />
        </mxCell>
        <mxCell id="beYNYx_X1feckc-HWX2N-39" value="Địa Chỉ" style="ellipse;whiteSpace=wrap;html=1;align=center;" parent="1" vertex="1">
          <mxGeometry x="553.75" y="410" width="46.25" height="20" as="geometry" />
        </mxCell>
        <mxCell id="beYNYx_X1feckc-HWX2N-40" value="SĐT" style="ellipse;whiteSpace=wrap;html=1;align=center;" parent="1" vertex="1">
          <mxGeometry x="500" y="394.22" width="53.75" height="20" as="geometry" />
        </mxCell>
        <mxCell id="beYNYx_X1feckc-HWX2N-41" value="CCCD" style="ellipse;whiteSpace=wrap;html=1;align=center;" parent="1" vertex="1">
          <mxGeometry x="431.25" y="392.81" width="53.75" height="20" as="geometry" />
        </mxCell>
        <mxCell id="beYNYx_X1feckc-HWX2N-42" value="Ngày đăng ký" style="ellipse;whiteSpace=wrap;html=1;align=center;" parent="1" vertex="1">
          <mxGeometry x="590" y="425" width="76.25" height="34.38" as="geometry" />
        </mxCell>
        <mxCell id="beYNYx_X1feckc-HWX2N-44" value="Mã phiếu mượn" style="ellipse;whiteSpace=wrap;html=1;align=center;fontStyle=4;" parent="1" vertex="1">
          <mxGeometry x="-150" y="204.38" width="70" height="30" as="geometry" />
        </mxCell>
        <mxCell id="beYNYx_X1feckc-HWX2N-45" value="Mã DocGia" style="ellipse;whiteSpace=wrap;html=1;align=center;" parent="1" vertex="1">
          <mxGeometry x="-112.5" y="150" width="62.5" height="30" as="geometry" />
        </mxCell>
        <mxCell id="beYNYx_X1feckc-HWX2N-46" value="Ngày mượn" style="ellipse;whiteSpace=wrap;html=1;align=center;" parent="1" vertex="1">
          <mxGeometry x="-50" y="110" width="75" height="30" as="geometry" />
        </mxCell>
        <mxCell id="beYNYx_X1feckc-HWX2N-47" value="Ngày trả" style="ellipse;whiteSpace=wrap;html=1;align=center;" parent="1" vertex="1">
          <mxGeometry x="20" y="135.78" width="60" height="24.22" as="geometry" />
        </mxCell>
        <mxCell id="beYNYx_X1feckc-HWX2N-48" value="Tiền&amp;nbsp; phạt" style="ellipse;whiteSpace=wrap;html=1;align=center;" parent="1" vertex="1">
          <mxGeometry x="79.99999999999999" y="155" width="75" height="25" as="geometry" />
        </mxCell>
        <mxCell id="beYNYx_X1feckc-HWX2N-49" value="Trạng thái" style="ellipse;whiteSpace=wrap;html=1;align=center;" parent="1" vertex="1">
          <mxGeometry x="86.25" y="190" width="80" height="34.38" as="geometry" />
        </mxCell>
        <mxCell id="beYNYx_X1feckc-HWX2N-51" value="" style="endArrow=none;html=1;rounded=0;exitX=0.955;exitY=0.702;exitDx=0;exitDy=0;exitPerimeter=0;" parent="1" source="beYNYx_X1feckc-HWX2N-44" target="beYNYx_X1feckc-HWX2N-21" edge="1">
          <mxGeometry relative="1" as="geometry">
            <mxPoint x="-40" y="310" as="sourcePoint" />
            <mxPoint x="120" y="310" as="targetPoint" />
          </mxGeometry>
        </mxCell>
        <mxCell id="beYNYx_X1feckc-HWX2N-52" value="" style="endArrow=none;html=1;rounded=0;exitX=1;exitY=1;exitDx=0;exitDy=0;entryX=0;entryY=0.5;entryDx=0;entryDy=0;" parent="1" source="beYNYx_X1feckc-HWX2N-45" target="beYNYx_X1feckc-HWX2N-21" edge="1">
          <mxGeometry relative="1" as="geometry">
            <mxPoint x="-73" y="235" as="sourcePoint" />
            <mxPoint x="-30" y="230" as="targetPoint" />
          </mxGeometry>
        </mxCell>
        <mxCell id="beYNYx_X1feckc-HWX2N-53" value="" style="endArrow=none;html=1;rounded=0;exitX=0.5;exitY=1;exitDx=0;exitDy=0;entryX=0.592;entryY=0.024;entryDx=0;entryDy=0;entryPerimeter=0;" parent="1" source="beYNYx_X1feckc-HWX2N-46" target="beYNYx_X1feckc-HWX2N-21" edge="1">
          <mxGeometry relative="1" as="geometry">
            <mxPoint x="-49" y="185" as="sourcePoint" />
            <mxPoint x="-15" y="240" as="targetPoint" />
          </mxGeometry>
        </mxCell>
        <mxCell id="beYNYx_X1feckc-HWX2N-54" value="" style="endArrow=none;html=1;rounded=0;entryX=0.5;entryY=1;entryDx=0;entryDy=0;" parent="1" target="beYNYx_X1feckc-HWX2N-47" edge="1">
          <mxGeometry relative="1" as="geometry">
            <mxPoint x="20" y="210" as="sourcePoint" />
            <mxPoint x="-5" y="250" as="targetPoint" />
          </mxGeometry>
        </mxCell>
        <mxCell id="beYNYx_X1feckc-HWX2N-55" value="" style="endArrow=none;html=1;rounded=0;exitX=0.059;exitY=0.832;exitDx=0;exitDy=0;exitPerimeter=0;" parent="1" source="beYNYx_X1feckc-HWX2N-48" edge="1">
          <mxGeometry relative="1" as="geometry">
            <mxPoint x="-29" y="205" as="sourcePoint" />
            <mxPoint x="20" y="210" as="targetPoint" />
          </mxGeometry>
        </mxCell>
        <mxCell id="beYNYx_X1feckc-HWX2N-56" value="" style="endArrow=none;html=1;rounded=0;exitX=0;exitY=0.5;exitDx=0;exitDy=0;entryX=1;entryY=0.25;entryDx=0;entryDy=0;" parent="1" source="beYNYx_X1feckc-HWX2N-49" target="beYNYx_X1feckc-HWX2N-21" edge="1">
          <mxGeometry relative="1" as="geometry">
            <mxPoint x="94" y="186" as="sourcePoint" />
            <mxPoint x="30" y="220" as="targetPoint" />
          </mxGeometry>
        </mxCell>
        <mxCell id="beYNYx_X1feckc-HWX2N-58" value="" style="endArrow=none;html=1;rounded=0;entryX=0.786;entryY=0.862;entryDx=0;entryDy=0;entryPerimeter=0;exitX=0;exitY=0;exitDx=0;exitDy=0;" parent="1" source="HIa7G53-TBurwskOPkQx-5" target="beYNYx_X1feckc-HWX2N-38" edge="1">
          <mxGeometry relative="1" as="geometry">
            <mxPoint x="449" y="482" as="sourcePoint" />
            <mxPoint x="280" y="640" as="targetPoint" />
          </mxGeometry>
        </mxCell>
        <mxCell id="beYNYx_X1feckc-HWX2N-60" value="" style="endArrow=none;html=1;rounded=0;entryX=0.5;entryY=1;entryDx=0;entryDy=0;exitX=0;exitY=0;exitDx=0;exitDy=0;" parent="1" source="HIa7G53-TBurwskOPkQx-5" target="beYNYx_X1feckc-HWX2N-41" edge="1">
          <mxGeometry relative="1" as="geometry">
            <mxPoint x="460" y="495" as="sourcePoint" />
            <mxPoint x="439" y="443" as="targetPoint" />
          </mxGeometry>
        </mxCell>
        <mxCell id="beYNYx_X1feckc-HWX2N-61" value="" style="endArrow=none;html=1;rounded=0;entryX=0.364;entryY=0.875;entryDx=0;entryDy=0;entryPerimeter=0;exitX=0.69;exitY=-0.061;exitDx=0;exitDy=0;exitPerimeter=0;" parent="1" source="HIa7G53-TBurwskOPkQx-5" target="beYNYx_X1feckc-HWX2N-40" edge="1">
          <mxGeometry relative="1" as="geometry">
            <mxPoint x="470" y="505" as="sourcePoint" />
            <mxPoint x="449" y="453" as="targetPoint" />
          </mxGeometry>
        </mxCell>
        <mxCell id="beYNYx_X1feckc-HWX2N-62" value="" style="endArrow=none;html=1;rounded=0;entryX=0;entryY=1;entryDx=0;entryDy=0;exitX=0.718;exitY=-0.055;exitDx=0;exitDy=0;exitPerimeter=0;" parent="1" source="HIa7G53-TBurwskOPkQx-5" target="beYNYx_X1feckc-HWX2N-39" edge="1">
          <mxGeometry relative="1" as="geometry">
            <mxPoint x="520" y="480" as="sourcePoint" />
            <mxPoint x="459" y="463" as="targetPoint" />
          </mxGeometry>
        </mxCell>
        <mxCell id="beYNYx_X1feckc-HWX2N-63" value="" style="endArrow=none;html=1;rounded=0;entryX=0.021;entryY=0.727;entryDx=0;entryDy=0;entryPerimeter=0;exitX=0.75;exitY=0;exitDx=0;exitDy=0;" parent="1" source="HIa7G53-TBurwskOPkQx-5" target="beYNYx_X1feckc-HWX2N-42" edge="1">
          <mxGeometry relative="1" as="geometry">
            <mxPoint x="490" y="525" as="sourcePoint" />
            <mxPoint x="469" y="473" as="targetPoint" />
          </mxGeometry>
        </mxCell>
        <mxCell id="beYNYx_X1feckc-HWX2N-64" value="" style="endArrow=none;html=1;rounded=0;entryX=0.698;entryY=0.87;entryDx=0;entryDy=0;entryPerimeter=0;exitX=0;exitY=0;exitDx=0;exitDy=0;" parent="1" source="HIa7G53-TBurwskOPkQx-5" target="beYNYx_X1feckc-HWX2N-37" edge="1">
          <mxGeometry relative="1" as="geometry">
            <mxPoint x="500" y="535" as="sourcePoint" />
            <mxPoint x="479" y="483" as="targetPoint" />
          </mxGeometry>
        </mxCell>
        <mxCell id="beYNYx_X1feckc-HWX2N-65" value="Mã sách" style="ellipse;whiteSpace=wrap;html=1;align=center;fontStyle=4;" parent="1" vertex="1">
          <mxGeometry x="-178.12" y="770" width="76.25" height="30" as="geometry" />
        </mxCell>
        <mxCell id="beYNYx_X1feckc-HWX2N-66" value="" style="endArrow=none;html=1;rounded=0;exitX=0.5;exitY=0;exitDx=0;exitDy=0;entryX=0.5;entryY=0;entryDx=0;entryDy=0;" parent="1" source="beYNYx_X1feckc-HWX2N-1" target="HIa7G53-TBurwskOPkQx-5" edge="1">
          <mxGeometry relative="1" as="geometry">
            <mxPoint x="466" y="289" as="sourcePoint" />
            <mxPoint x="520" y="490" as="targetPoint" />
          </mxGeometry>
        </mxCell>
        <mxCell id="beYNYx_X1feckc-HWX2N-68" value="Sách" style="rounded=0;whiteSpace=wrap;html=1;" parent="1" vertex="1">
          <mxGeometry x="-180" y="270" width="80" height="40" as="geometry" />
        </mxCell>
        <mxCell id="beYNYx_X1feckc-HWX2N-70" value="" style="endArrow=classic;html=1;rounded=0;exitX=0;exitY=1;exitDx=0;exitDy=0;" parent="1" source="beYNYx_X1feckc-HWX2N-21" edge="1">
          <mxGeometry width="50" height="50" relative="1" as="geometry">
            <mxPoint x="-85" y="315.63" as="sourcePoint" />
            <mxPoint x="-100" y="290" as="targetPoint" />
          </mxGeometry>
        </mxCell>
        <mxCell id="beYNYx_X1feckc-HWX2N-72" value="Tên sách" style="ellipse;whiteSpace=wrap;html=1;align=center;" parent="1" vertex="1">
          <mxGeometry x="-132.5" y="802.81" width="66.25" height="37.19" as="geometry" />
        </mxCell>
        <mxCell id="beYNYx_X1feckc-HWX2N-73" value="Tác giả" style="ellipse;whiteSpace=wrap;html=1;align=center;" parent="1" vertex="1">
          <mxGeometry x="3.552713678800501e-15" y="830" width="66.25" height="37.19" as="geometry" />
        </mxCell>
        <mxCell id="beYNYx_X1feckc-HWX2N-74" value="NXB" style="ellipse;whiteSpace=wrap;html=1;align=center;" parent="1" vertex="1">
          <mxGeometry x="-80" y="830" width="66.25" height="37.19" as="geometry" />
        </mxCell>
        <mxCell id="beYNYx_X1feckc-HWX2N-75" value="Số lượng" style="ellipse;whiteSpace=wrap;html=1;align=center;" parent="1" vertex="1">
          <mxGeometry x="131.88" y="780" width="66.25" height="37.19" as="geometry" />
        </mxCell>
        <mxCell id="beYNYx_X1feckc-HWX2N-76" value="Vị trị" style="ellipse;whiteSpace=wrap;html=1;align=center;" parent="1" vertex="1">
          <mxGeometry x="72.5" y="820" width="66.25" height="37.19" as="geometry" />
        </mxCell>
        <mxCell id="beYNYx_X1feckc-HWX2N-79" value="" style="endArrow=none;html=1;rounded=0;entryX=0;entryY=1;entryDx=0;entryDy=0;" parent="1" source="beYNYx_X1feckc-HWX2N-65" target="HIa7G53-TBurwskOPkQx-3" edge="1">
          <mxGeometry width="50" height="50" relative="1" as="geometry">
            <mxPoint x="-100" y="780" as="sourcePoint" />
            <mxPoint x="-30" y="770" as="targetPoint" />
          </mxGeometry>
        </mxCell>
        <mxCell id="beYNYx_X1feckc-HWX2N-80" value="" style="endArrow=none;html=1;rounded=0;entryX=0;entryY=1;entryDx=0;entryDy=0;exitX=1;exitY=0;exitDx=0;exitDy=0;" parent="1" source="beYNYx_X1feckc-HWX2N-72" target="HIa7G53-TBurwskOPkQx-3" edge="1">
          <mxGeometry width="50" height="50" relative="1" as="geometry">
            <mxPoint x="-94" y="790" as="sourcePoint" />
            <mxPoint x="-15" y="780" as="targetPoint" />
          </mxGeometry>
        </mxCell>
        <mxCell id="beYNYx_X1feckc-HWX2N-81" value="" style="endArrow=none;html=1;rounded=0;entryX=0;entryY=1;entryDx=0;entryDy=0;exitX=0.5;exitY=0;exitDx=0;exitDy=0;" parent="1" source="beYNYx_X1feckc-HWX2N-74" target="HIa7G53-TBurwskOPkQx-3" edge="1">
          <mxGeometry width="50" height="50" relative="1" as="geometry">
            <mxPoint x="-66" y="818" as="sourcePoint" />
            <mxPoint x="-15" y="780" as="targetPoint" />
          </mxGeometry>
        </mxCell>
        <mxCell id="beYNYx_X1feckc-HWX2N-83" value="" style="endArrow=none;html=1;rounded=0;exitX=0.274;exitY=0.121;exitDx=0;exitDy=0;exitPerimeter=0;entryX=0.5;entryY=1;entryDx=0;entryDy=0;" parent="1" source="beYNYx_X1feckc-HWX2N-73" target="HIa7G53-TBurwskOPkQx-3" edge="1">
          <mxGeometry width="50" height="50" relative="1" as="geometry">
            <mxPoint x="5" y="823.6" as="sourcePoint" />
            <mxPoint x="55" y="773.6" as="targetPoint" />
          </mxGeometry>
        </mxCell>
        <mxCell id="beYNYx_X1feckc-HWX2N-84" value="" style="endArrow=none;html=1;rounded=0;exitX=0;exitY=0;exitDx=0;exitDy=0;entryX=1;entryY=1;entryDx=0;entryDy=0;" parent="1" source="beYNYx_X1feckc-HWX2N-76" target="HIa7G53-TBurwskOPkQx-3" edge="1">
          <mxGeometry width="50" height="50" relative="1" as="geometry">
            <mxPoint x="28" y="844" as="sourcePoint" />
            <mxPoint x="25" y="780" as="targetPoint" />
          </mxGeometry>
        </mxCell>
        <mxCell id="beYNYx_X1feckc-HWX2N-85" value="" style="endArrow=none;html=1;rounded=0;entryX=1;entryY=1;entryDx=0;entryDy=0;" parent="1" source="beYNYx_X1feckc-HWX2N-75" target="HIa7G53-TBurwskOPkQx-3" edge="1">
          <mxGeometry width="50" height="50" relative="1" as="geometry">
            <mxPoint x="130" y="800" as="sourcePoint" />
            <mxPoint x="35" y="790" as="targetPoint" />
          </mxGeometry>
        </mxCell>
        <mxCell id="beYNYx_X1feckc-HWX2N-90" value="n:m" style="text;whiteSpace=wrap;html=1;" parent="1" vertex="1">
          <mxGeometry x="-91.25" y="250" width="20" height="30" as="geometry" />
        </mxCell>
        <mxCell id="beYNYx_X1feckc-HWX2N-93" value="một cuốn sách có thể được mượn bởi nhiều độc giả trong những lần mượn khác nhau" style="text;whiteSpace=wrap;html=1;" parent="1" vertex="1">
          <mxGeometry x="-570" y="240" width="490" height="40" as="geometry" />
        </mxCell>
      </root>
    </mxGraphModel>
  </diagram>
</mxfile>
